<svg width="14" height="14" viewBox="0 0 14 14" fill="none" xmlns="http://www.w3.org/2000/svg">
<path fill-rule="evenodd" clip-rule="evenodd" d="M4.99997 1C4.99997 0.447723 5.44767 0 5.99997 0H7.99994C8.55222 0 8.99994 0.447723 8.99994 1V1.3414C9.75968 1.60992 10.4492 2.0271 11.0335 2.55801L11.1339 2.5C11.6122 2.22385 12.2238 2.38773 12.5 2.86603L13.5 4.59808C13.7761 5.07635 13.6122 5.68796 13.1339 5.96411L12.9301 6.08179C12.9761 6.38113 12.9999 6.68777 12.9999 7C12.9999 7.45935 12.9483 7.90665 12.8506 8.3364L13.1339 8.5C13.6122 8.77615 13.7761 9.38773 13.5 9.86603L12.5 11.5981C12.2238 12.0764 11.6122 12.2402 11.1339 11.9641L10.7074 11.7178C10.1983 12.1185 9.62268 12.4385 8.99994 12.6586V13C8.99994 13.5523 8.55222 14 7.99994 14H5.99997C5.44767 14 4.99997 13.5523 4.99997 13V12.6586C4.35581 12.4309 3.76212 12.0964 3.24027 11.6762L2.74167 11.9641C2.2634 12.2402 1.65177 12.0764 1.37564 11.5981L0.375644 9.86603C0.0995208 9.38773 0.2634 8.77615 0.741672 8.5L1.13523 8.27277C1.0466 7.86255 0.999972 7.43674 0.999972 7C0.999972 6.71072 1.02048 6.42627 1.06003 6.14792L0.741672 5.96411C0.2634 5.68796 0.0995208 5.07635 0.375644 4.59808L1.37564 2.86603C1.65177 2.38773 2.2634 2.22385 2.74167 2.5L2.91849 2.60208C3.51291 2.05017 4.21933 1.61731 4.99997 1.3414V1ZM6.99997 10C8.65683 10 9.99997 8.65686 9.99997 7C9.99997 5.34314 8.65683 4 6.99997 4C5.34311 4 3.99997 5.34314 3.99997 7C3.99997 8.65686 5.34311 10 6.99997 10Z" fill="#428AB4"/>
</svg>
