<svg width="14" height="14" viewBox="0 0 14 14" fill="none" xmlns="http://www.w3.org/2000/svg">
<path fill-rule="evenodd" clip-rule="evenodd" d="M11 5.5C11 6.78756 10.5576 7.97179 9.81643 8.90894C10.101 8.88377 10.3943 8.9801 10.6122 9.19792L13.1213 11.7071C13.5119 12.0976 13.5119 12.7308 13.1213 13.1213C12.7308 13.5118 12.0976 13.5118 11.7071 13.1213L9.19795 10.6121C8.98013 10.3943 8.8838 10.101 8.90897 9.81641C7.97181 10.5576 6.78758 11 5.5 11C2.46243 11 0 8.53757 0 5.5C0 2.46243 2.46243 0 5.5 0C8.53757 0 11 2.46243 11 5.5ZM5.5 9C7.433 9 9 7.433 9 5.5C9 3.567 7.433 2 5.5 2C3.567 2 2 3.567 2 5.5C2 7.433 3.567 9 5.5 9Z" fill="#797E82"/>
</svg>
