<svg width="20" height="20" viewBox="0 0 20 20" fill="none" xmlns="http://www.w3.org/2000/svg">
<circle cx="10" cy="10" r="9.5" stroke="#F0F0F0"/>
<path d="M12.1055 12.8872C12.1055 12.3781 11.9256 11.9492 11.5659 11.6006C11.2118 11.252 10.6113 10.9365 9.76465 10.6543C8.58594 10.2946 7.72542 9.82699 7.18311 9.25146C6.64632 8.67041 6.37793 7.93441 6.37793 7.04346C6.37793 6.1359 6.64079 5.3916 7.1665 4.81055C7.69775 4.22949 8.42546 3.88363 9.34961 3.77295V1.95508H10.5864V3.78125C11.5161 3.90853 12.2383 4.29867 12.7529 4.95166C13.2731 5.60465 13.5332 6.49837 13.5332 7.63281H12.0059C12.0059 6.85254 11.8205 6.23275 11.4497 5.77344C11.0789 5.31413 10.5781 5.08447 9.94727 5.08447C9.28874 5.08447 8.78516 5.25602 8.43652 5.59912C8.08789 5.93669 7.91357 6.40983 7.91357 7.01855C7.91357 7.58301 8.09619 8.03402 8.46143 8.37158C8.83219 8.70361 9.43815 9.00798 10.2793 9.28467C11.126 9.55583 11.7845 9.85742 12.2549 10.1895C12.7308 10.516 13.0794 10.8978 13.3008 11.335C13.5277 11.7721 13.6411 12.284 13.6411 12.8706C13.6411 13.8058 13.3589 14.5584 12.7944 15.1284C12.2355 15.6984 11.4497 16.036 10.437 16.1411V17.7266H9.2085V16.1411C8.1792 16.047 7.37126 15.6818 6.78467 15.0454C6.20361 14.4035 5.91309 13.5347 5.91309 12.439H7.44873C7.44873 13.2082 7.65072 13.8003 8.05469 14.2153C8.45866 14.6304 9.03141 14.8379 9.77295 14.8379C10.4979 14.8379 11.0679 14.6636 11.4829 14.3149C11.8979 13.9663 12.1055 13.4904 12.1055 12.8872Z" fill="#F0F0F0"/>
</svg>
